<svg xmlns="http://www.w3.org/2000/svg" viewBox="0 0 202 202" fill="none">
  <rect x="27" y="87" width="30" height="30" fill="#F12A21" />
  <rect x="62" y="62" width="20" height="20" fill="#F12A2180" />
  <rect x="122" y="2" width="20" height="20" fill="#F12A2180" />
  <rect x="62" y="182" width="20" height="20" fill="#F12A2180" />
  <rect x="182" y="62" width="20" height="20" fill="#F12A2180" />
  <rect x="60" y="120" width="24" height="24" fill="#F12A21B3" />
  <rect x="26" y="154" width="24" height="24" fill="#F12A21B3" />
  <rect x="90" y="90" width="24" height="24" fill="#F12A21B3" />
  <rect x="0" y="120" width="24" height="24" fill="#F12A21B3" />
  <rect x="147" y="87" width="30" height="30" fill="#F12A21" />
  <rect x="147" y="27" width="30" height="30" fill="#F12A21" />
  <rect x="87" y="147" width="30" height="30" fill="#F12A21" />
  <rect x="117" y="117" width="30" height="30" fill="#F12A21" />
  <rect x="182" y="122" width="20" height="20" fill="#F12A2166" />
  <rect x="30" y="30" width="24" height="24" fill="#F12A21B3" />
  <rect x="153" y="153" width="24" height="24" fill="#F12A21B3" />
  <rect x="122" y="62" width="20" height="20" fill="#F12A2166" />
  <rect x="60" y="0" width="24" height="24" fill="#F12A21B3" />
  <rect x="120" y="178" width="24" height="24" fill="#F12A21B3" />
  <rect x="0" y="60" width="24" height="24" fill="#F12A21B3" />
  <rect x="87" y="27" width="30" height="30" fill="#F12A21" />
</svg>
